<svg width="70" height="77" viewBox="0 0 70 77" fill="none" xmlns="http://www.w3.org/2000/svg">
<g clip-path="url(#clip0_157_1454)">
<path d="M22.5022 23.0989C22.4141 13.0826 30.8142 6.22743 40.4951 6.21388C49.8055 6.20034 57.5891 14.5751 57.3768 23.9614C57.1599 33.5487 49.3832 41.368 39.7226 41.1964C29.4974 41.0158 22.5112 33.0813 22.5022 23.0989ZM49.9817 28.728C48.037 30.444 46.1306 32.1352 43.3818 32.3181C40.6216 32.5033 38.2409 31.6746 36.3481 29.6696C33.7077 26.8742 33.4005 21.6877 35.7044 18.5717C37.4662 16.1918 39.9824 15.2931 42.869 15.1396C45.8754 14.9815 47.967 16.6818 50.0382 18.5423C50.0359 18.163 49.9727 17.8785 49.8643 17.6143C46.4559 9.4247 36.6847 7.46479 29.7662 11.4433C25.7908 13.7306 23.9364 17.4992 23.3401 22.0218C22.5022 28.378 25.9106 34.7883 31.8623 36.6308C36.7908 38.1572 41.4415 37.8659 45.8008 35.0209C48.0415 33.5578 49.5819 31.5346 49.9817 28.728ZM42.8803 20.3916C45.4756 20.1635 47.3481 21.2045 47.5017 23.7356C47.6869 26.7974 45.1164 27.0345 42.7787 27.2671C43.8606 28.7054 45.7173 29.1412 47.5649 28.5112C49.4893 27.8564 50.8129 25.9981 50.8152 23.9456C50.8175 21.7735 49.4622 19.7729 47.5559 19.143C45.6653 18.5175 43.9577 18.9194 42.8848 20.3916H42.8803Z" fill="#0507B1"/>
<path d="M59.2266 11.369C57.9053 10.5922 56.6088 9.76807 55.2603 9.04552C47.9014 5.10765 40.2782 3.98318 32.2124 6.71305C27.3245 8.36588 23.4033 11.5022 19.4145 14.5707C18.2828 15.4423 17.1377 16.3003 16.0399 17.2126C14.172 18.7683 12.0307 19.1905 9.69067 18.827C6.30033 18.3009 3.37303 16.761 0.502197 14.6024C1.00363 14.1372 1.38987 13.6066 1.91164 13.3244C7.73462 10.1926 13.5395 7.02014 19.4303 4.01705C25.3842 0.986872 31.7222 -0.413061 38.4216 0.451736C45.8505 1.41137 52.6944 3.75061 58.0724 9.28938C58.6077 9.84032 59.0256 10.5019 59.4999 11.1116C59.4096 11.1974 59.317 11.2832 59.2266 11.369Z" fill="#00036C"/>
</g>
<path d="M14.4492 61.3667C13.6932 61.3667 12.9885 61.2314 12.3352 60.9607C11.6912 60.6901 11.1219 60.3121 10.6272 59.8267C10.1419 59.3414 9.7592 58.7721 9.4792 58.1187C9.20854 57.4654 9.0732 56.7514 9.0732 55.9767C9.0732 55.2021 9.20854 54.4881 9.4792 53.8347C9.7592 53.1721 10.1419 52.6027 10.6272 52.1267C11.1125 51.6414 11.6819 51.2681 12.3352 51.0067C12.9885 50.7361 13.6932 50.6007 14.4492 50.6007C15.2145 50.6007 15.9192 50.7361 16.5632 51.0067C17.2165 51.2681 17.7859 51.6414 18.2712 52.1267C18.7659 52.6121 19.1485 53.1814 19.4192 53.8347C19.6899 54.4881 19.8252 55.2021 19.8252 55.9767C19.8252 56.7514 19.6852 57.4654 19.4052 58.1187C19.1345 58.7721 18.7565 59.3414 18.2712 59.8267C17.7859 60.3121 17.2165 60.6901 16.5632 60.9607C15.9099 61.2314 15.2052 61.3667 14.4492 61.3667ZM14.4492 59.8547C14.9905 59.8547 15.4852 59.7567 15.9332 59.5607C16.3905 59.3647 16.7872 59.0941 17.1232 58.7487C17.4592 58.3941 17.7205 57.9834 17.9072 57.5167C18.0939 57.0407 18.1872 56.5274 18.1872 55.9767C18.1872 55.4261 18.0939 54.9174 17.9072 54.4507C17.7205 53.9841 17.4592 53.5734 17.1232 53.2187C16.7872 52.8641 16.3905 52.5887 15.9332 52.3927C15.4852 52.1967 14.9905 52.0987 14.4492 52.0987C13.9079 52.0987 13.4085 52.1967 12.9512 52.3927C12.5032 52.5887 12.1112 52.8641 11.7752 53.2187C11.4392 53.5734 11.1779 53.9841 10.9912 54.4507C10.8139 54.9174 10.7252 55.4261 10.7252 55.9767C10.7252 56.5274 10.8139 57.0407 10.9912 57.5167C11.1779 57.9834 11.4392 58.3941 11.7752 58.7487C12.1112 59.0941 12.5079 59.3647 12.9652 59.5607C13.4225 59.7567 13.9172 59.8547 14.4492 59.8547ZM13.6652 49.3827L14.6872 47.0727H16.7592L15.2332 49.3827H13.6652ZM21.7142 61.1987V50.7687H25.5082C26.2082 50.7687 26.8242 50.8994 27.3562 51.1607C27.8976 51.4127 28.3176 51.7861 28.6162 52.2807C28.9149 52.7661 29.0642 53.3494 29.0642 54.0307C29.0642 54.7027 28.9102 55.2814 28.6022 55.7667C28.3036 56.2521 27.8882 56.6254 27.3562 56.8867C26.8242 57.1481 26.2082 57.2787 25.5082 57.2787H23.3662V61.1987H21.7142ZM23.3662 55.8087H25.5502C25.9236 55.8087 26.2502 55.7341 26.5302 55.5847C26.8102 55.4354 27.0296 55.2301 27.1882 54.9687C27.3469 54.6981 27.4262 54.3807 27.4262 54.0167C27.4262 53.6527 27.3469 53.3401 27.1882 53.0787C27.0296 52.8081 26.8102 52.6027 26.5302 52.4627C26.2502 52.3134 25.9236 52.2387 25.5502 52.2387H23.3662V55.8087ZM32.655 61.1987V52.2387H29.883V50.7687H37.023V52.2387H34.293V61.1987H32.655ZM38.3002 61.1987V50.7687H39.9522V61.1987H38.3002ZM47.0146 61.3667C46.2773 61.3667 45.5913 61.2314 44.9566 60.9607C44.3313 60.6901 43.7853 60.3167 43.3186 59.8407C42.8613 59.3554 42.502 58.7861 42.2406 58.1327C41.9793 57.4794 41.8486 56.7607 41.8486 55.9767C41.8486 55.2021 41.9746 54.4881 42.2266 53.8347C42.488 53.1721 42.852 52.6027 43.3186 52.1267C43.7853 51.6414 44.3313 51.2681 44.9566 51.0067C45.582 50.7361 46.268 50.6007 47.0146 50.6007C47.752 50.6007 48.41 50.7267 48.9886 50.9787C49.5766 51.2307 50.0713 51.5621 50.4726 51.9727C50.874 52.3741 51.1633 52.8127 51.3406 53.2887L49.8566 53.9887C49.6326 53.4287 49.2733 52.9761 48.7786 52.6307C48.2933 52.2761 47.7053 52.0987 47.0146 52.0987C46.324 52.0987 45.7126 52.2621 45.1806 52.5887C44.6486 52.9154 44.2333 53.3681 43.9346 53.9467C43.6453 54.5254 43.5006 55.2021 43.5006 55.9767C43.5006 56.7514 43.6453 57.4327 43.9346 58.0207C44.2333 58.5994 44.6486 59.0521 45.1806 59.3787C45.7126 59.6961 46.324 59.8547 47.0146 59.8547C47.7053 59.8547 48.2933 59.6821 48.7786 59.3367C49.2733 58.9914 49.6326 58.5387 49.8566 57.9787L51.3406 58.6787C51.1633 59.1454 50.874 59.5841 50.4726 59.9947C50.0713 60.4054 49.5766 60.7367 48.9886 60.9887C48.41 61.2407 47.752 61.3667 47.0146 61.3667ZM52.1574 61.1987L55.8254 50.7687H57.8694L61.5374 61.1987H59.7734L58.9754 58.8607H54.7334L53.9214 61.1987H52.1574ZM55.2094 57.3907H58.4714L56.6234 51.9307H57.0854L55.2094 57.3907ZM4.70056 75.1987L1.00456 64.7687H2.78256L5.80656 73.6727H5.45656L8.46656 64.7687H10.2446L6.54856 75.1987H4.70056ZM11.5135 75.1987V64.7687H13.1655V75.1987H11.5135ZM15.37 75.1987V64.7687H17.022V73.7287H21.53V75.1987H15.37ZM22.9589 75.1987V64.7687H24.6109V73.7287H29.1189V75.1987H22.9589ZM29.6237 75.1987L33.2917 64.7687H35.3357L39.0037 75.1987H37.2397L36.4417 72.8607H32.1997L31.3877 75.1987H29.6237ZM32.6757 71.3907H35.9377L34.0897 65.9307H34.5517L32.6757 71.3907ZM44.7453 75.3667C44.0079 75.3667 43.3219 75.2314 42.6873 74.9607C42.0619 74.6901 41.5113 74.3167 41.0353 73.8407C40.5686 73.3554 40.2046 72.7861 39.9433 72.1327C39.6819 71.4794 39.5513 70.7607 39.5513 69.9767C39.5513 69.2021 39.6773 68.4881 39.9293 67.8347C40.1906 67.1721 40.5546 66.6027 41.0213 66.1267C41.4879 65.6414 42.0339 65.2681 42.6593 65.0067C43.2846 64.7361 43.9706 64.6007 44.7173 64.6007C45.4546 64.6007 46.1126 64.7267 46.6913 64.9787C47.2793 65.2307 47.7739 65.5621 48.1753 65.9727C48.5766 66.3741 48.8659 66.8127 49.0433 67.2887L47.5733 68.0027C47.3586 67.4334 47.0039 66.9761 46.5093 66.6307C46.0146 66.2761 45.4173 66.0987 44.7173 66.0987C44.0266 66.0987 43.4153 66.2621 42.8833 66.5887C42.3513 66.9154 41.9359 67.3681 41.6373 67.9467C41.3479 68.5254 41.2033 69.2021 41.2033 69.9767C41.2033 70.7514 41.3526 71.4327 41.6513 72.0207C41.9593 72.5994 42.3793 73.0521 42.9113 73.3787C43.4433 73.6961 44.0546 73.8547 44.7453 73.8547C45.3239 73.8547 45.8513 73.7381 46.3273 73.5047C46.8126 73.2621 47.1999 72.9261 47.4893 72.4967C47.7786 72.0581 47.9233 71.5494 47.9233 70.9707V70.2567L48.6653 70.9287H44.7173V69.5287H49.5613V70.5087C49.5613 71.2741 49.4306 71.9601 49.1693 72.5667C48.9079 73.1641 48.5533 73.6727 48.1053 74.0927C47.6573 74.5127 47.1439 74.8301 46.5653 75.0447C45.9866 75.2594 45.3799 75.3667 44.7453 75.3667ZM51.2899 75.1987V64.7687H55.0839C55.7839 64.7687 56.3999 64.8994 56.9319 65.1607C57.4639 65.4127 57.8793 65.7861 58.1779 66.2807C58.4859 66.7661 58.6399 67.3494 58.6399 68.0307C58.6399 68.7494 58.4579 69.3654 58.0939 69.8787C57.7393 70.3921 57.2586 70.7654 56.6519 70.9987L59.0599 75.1987H57.1839L54.6219 70.6487L55.6999 71.2787H52.9419V75.1987H51.2899ZM52.9419 69.8087H55.1119C55.4946 69.8087 55.8259 69.7341 56.1059 69.5847C56.3859 69.4354 56.6006 69.2301 56.7499 68.9687C56.9086 68.6981 56.9879 68.3807 56.9879 68.0167C56.9879 67.6527 56.9086 67.3401 56.7499 67.0787C56.6006 66.8081 56.3859 66.6027 56.1059 66.4627C55.8259 66.3134 55.4946 66.2387 55.1119 66.2387H52.9419V69.8087ZM59.5681 75.1987L63.2361 64.7687H65.2801L68.9481 75.1987H67.1841L66.3861 72.8607H62.1441L61.3321 75.1987H59.5681ZM62.6201 71.3907H65.8821L64.0341 65.9307H64.4961L62.6201 71.3907Z" fill="#00036C"/>
<defs>
<clipPath id="clip0_157_1454">
<rect width="59" height="41" fill="white" transform="translate(0.5 0.19873)"/>
</clipPath>
</defs>
</svg>
