<?xml version="1.0" encoding="UTF-8" standalone="no"?>
<svg
   width="262"
   height="262"
   viewBox="0 0 262 262"
   fill="none"
   version="1.1"
   id="svg2"
   sodipodi:docname="logo.svg"
   inkscape:export-filename="favicon.png"
   inkscape:export-xdpi="23.450001"
   inkscape:export-ydpi="23.450001"
   inkscape:version="1.4 (86a8ad7, 2024-10-11)"
   xmlns:inkscape="http://www.inkscape.org/namespaces/inkscape"
   xmlns:sodipodi="http://sodipodi.sourceforge.net/DTD/sodipodi-0.dtd"
   xmlns="http://www.w3.org/2000/svg"
   xmlns:svg="http://www.w3.org/2000/svg">
  <sodipodi:namedview
     id="namedview2"
     pagecolor="#ffffff"
     bordercolor="#999999"
     borderopacity="1"
     inkscape:showpageshadow="2"
     inkscape:pageopacity="0"
     inkscape:pagecheckerboard="0"
     inkscape:deskcolor="#d1d1d1"
     inkscape:zoom="6.3328794"
     inkscape:cx="109.11308"
     inkscape:cy="17.764431"
     inkscape:window-width="1920"
     inkscape:window-height="1017"
     inkscape:window-x="-8"
     inkscape:window-y="-8"
     inkscape:window-maximized="1"
     inkscape:current-layer="svg2" />
  <g
     clip-path="url(#clip0_48_3293)"
     id="g2"
     transform="matrix(0.99540589,0,0,1.0023278,0.99003619,39.997308)">
    <path
       d="m 97.41,101.42 c -0.39,-44.36 36.8,-74.72 79.66,-74.78 41.22,-0.06 75.68,37.03 74.74,78.6 -0.96,42.46 -35.39,77.09 -78.16,76.33 -45.27,-0.8 -76.2,-35.94 -76.24,-80.15 z m 121.66,24.93 c -8.61,7.6 -17.05,15.09 -29.22,15.9 -12.22,0.82 -22.76,-2.85 -31.14,-11.73 -11.69,-12.38 -13.05,-35.35 -2.85,-49.15 7.8,-10.54 18.94,-14.52 31.72,-15.2 13.31,-0.7 22.57,6.83 31.74,15.07 -0.01,-1.68 -0.29,-2.94 -0.77,-4.11 C 203.46,40.86 160.2,32.18 129.57,49.8 c -17.6,10.13 -25.81,26.82 -28.45,46.85 -3.71,28.15 11.38,56.54 37.73,64.7 21.82,6.76 42.41,5.47 61.71,-7.13 9.92,-6.48 16.74,-15.44 18.51,-27.87 z M 187.63,89.43 c 11.49,-1.01 19.78,3.6 20.46,14.81 0.82,13.56 -10.56,14.61 -20.91,15.64 4.79,6.37 13.01,8.3 21.19,5.51 8.52,-2.9 14.38,-11.13 14.39,-20.22 0.01,-9.62 -5.99,-18.48 -14.43,-21.27 -8.37,-2.77 -15.93,-0.99 -20.68,5.53 z"
       fill="#0507b1"
       id="path1" />
    <path
       d="M 260,49.47 C 254.15,46.03 248.41,42.38 242.44,39.18 209.86,21.74 176.11,16.7599 140.4,28.8499 118.76,36.1699 101.4,50.06 83.74,63.65 78.73,67.5099 73.66,71.3099 68.8,75.3499 c -8.27,6.89 -17.75,8.76 -28.11,7.15 C 25.68,80.1699 12.72,73.35 0.0100098,63.79 2.23001,61.7299 3.94001,59.38 6.25001,58.13 32.03,44.26 57.73,30.2099 83.81,16.9099 110.17,3.48995 138.23,-2.71005 167.89,1.11995 c 32.89,4.25 63.19,14.60995 87,39.13995 2.37,2.44 4.22,5.3701 6.32,8.0701 -0.4,0.38 -0.81,0.76 -1.21,1.14 z"
       fill="#00036c"
       id="path2" />
  </g>
  <defs
     id="defs2">
    <clipPath
       id="clip0_48_3293">
      <rect
         width="261.20999"
         height="181.58"
         fill="#ffffff"
         id="rect2"
         x="0"
         y="0" />
    </clipPath>
  </defs>
</svg>
