<?xml version="1.0" encoding="UTF-8" standalone="no"?>
<svg
   width="850"
   height="300"
   viewBox="0 0 850 300"
   fill="none"
   version="1.1"
   id="svg2"
   sodipodi:docname="logo_nombre.svg"
   inkscape:export-filename="favicon.png"
   inkscape:export-xdpi="23.450001"
   inkscape:export-ydpi="23.450001"
   inkscape:version="1.4 (86a8ad7, 2024-10-11)"
   xmlns:inkscape="http://www.inkscape.org/namespaces/inkscape"
   xmlns:sodipodi="http://sodipodi.sourceforge.net/DTD/sodipodi-0.dtd"
   xmlns="http://www.w3.org/2000/svg"
   xmlns:svg="http://www.w3.org/2000/svg">
  <sodipodi:namedview
     id="namedview2"
     pagecolor="#ffffff"
     bordercolor="#999999"
     borderopacity="1"
     inkscape:showpageshadow="2"
     inkscape:pageopacity="0"
     inkscape:pagecheckerboard="0"
     inkscape:deskcolor="#d1d1d1"
     inkscape:zoom="0.55975276"
     inkscape:cx="418.04171"
     inkscape:cy="309.95828"
     inkscape:window-width="1920"
     inkscape:window-height="1017"
     inkscape:window-x="-8"
     inkscape:window-y="-8"
     inkscape:window-maximized="1"
     inkscape:current-layer="svg2" />
  <g
     clip-path="url(#clip0_48_3293)"
     id="g2"
     transform="matrix(1.2164951,0,0,1.2243625,8.9878231,41.113438)">
    <path
       d="m 97.41,101.42 c -0.39,-44.36 36.8,-74.72 79.66,-74.78 41.22,-0.06 75.68,37.03 74.74,78.6 -0.96,42.46 -35.39,77.09 -78.16,76.33 -45.27,-0.8 -76.2,-35.94 -76.24,-80.15 z m 121.66,24.93 c -8.61,7.6 -17.05,15.09 -29.22,15.9 -12.22,0.82 -22.76,-2.85 -31.14,-11.73 -11.69,-12.38 -13.05,-35.35 -2.85,-49.15 7.8,-10.54 18.94,-14.52 31.72,-15.2 13.31,-0.7 22.57,6.83 31.74,15.07 -0.01,-1.68 -0.29,-2.94 -0.77,-4.11 C 203.46,40.86 160.2,32.18 129.57,49.8 c -17.6,10.13 -25.81,26.82 -28.45,46.85 -3.71,28.15 11.38,56.54 37.73,64.7 21.82,6.76 42.41,5.47 61.71,-7.13 9.92,-6.48 16.74,-15.44 18.51,-27.87 z M 187.63,89.43 c 11.49,-1.01 19.78,3.6 20.46,14.81 0.82,13.56 -10.56,14.61 -20.91,15.64 4.79,6.37 13.01,8.3 21.19,5.51 8.52,-2.9 14.38,-11.13 14.39,-20.22 0.01,-9.62 -5.99,-18.48 -14.43,-21.27 -8.37,-2.77 -15.93,-0.99 -20.68,5.53 z"
       fill="#0507b1"
       id="path1" />
    <path
       d="M 260,49.47 C 254.15,46.03 248.41,42.38 242.44,39.18 209.86,21.74 176.11,16.7599 140.4,28.8499 118.76,36.1699 101.4,50.06 83.74,63.65 78.73,67.5099 73.66,71.3099 68.8,75.3499 c -8.27,6.89 -17.75,8.76 -28.11,7.15 C 25.68,80.1699 12.72,73.35 0.0100098,63.79 2.23001,61.7299 3.94001,59.38 6.25001,58.13 32.03,44.26 57.73,30.2099 83.81,16.9099 110.17,3.48995 138.23,-2.71005 167.89,1.11995 c 32.89,4.25 63.19,14.60995 87,39.13995 2.37,2.44 4.22,5.3701 6.32,8.0701 -0.4,0.38 -0.81,0.76 -1.21,1.14 z"
       fill="#00036c"
       id="path2" />
  </g>
  <defs
     id="defs2">
    <clipPath
       id="clip0_48_3293">
      <rect
         width="261.20999"
         height="181.58"
         fill="#ffffff"
         id="rect2"
         x="0"
         y="0" />
    </clipPath>
  </defs>
  <path
     d="m 428.21502,143.7221 q -10.91633,0 -20.36828,-3.86065 -9.45194,-3.86066 -16.50762,-10.78321 -7.05568,-6.92255 -11.04946,-16.24137 -3.86065,-9.45195 -3.86065,-20.368283 0,-11.049458 3.86065,-20.368279 3.86065,-9.31882 10.91633,-16.241373 7.05568,-6.922552 16.50763,-10.65008 9.45194,-3.860654 20.5014,-3.860654 11.04946,0 20.50141,3.860654 9.45194,3.860654 16.50762,10.783206 7.05568,6.789427 10.91633,16.108247 3.99378,9.318821 3.99378,20.368279 0,10.916333 -3.99378,20.368283 -3.99378,9.31882 -11.04945,16.24137 -7.05568,6.92255 -16.50763,10.78321 -9.31882,3.86065 -20.36828,3.86065 z m 0,-16.50762 q 7.32193,0 13.44573,-2.5294 6.1238,-2.66252 10.65008,-7.32193 4.65941,-4.65941 7.05568,-11.04946 2.52939,-6.390046 2.52939,-13.845103 0,-7.455056 -2.52939,-13.711978 -2.39627,-6.390049 -7.05568,-11.049459 -4.52628,-4.792536 -10.65008,-7.32193 -6.1238,-2.529394 -13.44573,-2.529394 -7.1888,0 -13.3126,2.529394 -6.12379,2.529394 -10.78321,7.32193 -4.52628,4.65941 -7.05567,11.049459 -2.5294,6.256922 -2.5294,13.711978 0,7.455057 2.5294,13.845103 2.52939,6.39005 7.05567,11.04946 4.65942,4.65941 10.78321,7.32193 6.1238,2.5294 13.3126,2.5294 z m -8.52006,-97.18199 8.65319,-23.0307992 h 22.63142 L 436.86821,30.03249 Z m 75.0831,138.7173 V 69.70404 h 16.3745 v 14.377609 l -1.59752,-3.594402 q 3.72753,-5.857545 10.11758,-9.052569 6.39005,-3.32815 14.77699,-3.32815 10.2507,0 18.50451,5.058788 8.25382,5.058789 13.04635,13.578853 4.92566,8.520065 4.92566,19.170141 0,10.51696 -4.79253,19.17015 -4.79254,8.65319 -13.04635,13.71198 -8.25381,4.92566 -18.77077,4.92566 -7.85443,0 -14.51073,-3.0619 -6.52318,-3.19502 -10.38383,-9.05257 l 2.79564,-3.46127 v 40.60343 z m 37.54153,-41.00281 q 5.99067,0 10.65008,-2.79565 4.65941,-2.79564 7.18881,-7.72131 2.66252,-4.92566 2.66252,-11.31571 0,-6.390044 -2.66252,-11.182581 -2.5294,-4.925662 -7.18881,-7.721308 -4.65941,-2.928772 -10.65008,-2.928772 -5.72442,0 -10.38383,2.795646 -4.52628,2.795646 -7.1888,7.854434 -2.5294,4.925663 -2.5294,11.182581 0,6.39005 2.5294,11.31571 2.66252,4.92567 7.1888,7.72131 4.65941,2.79565 10.38383,2.79565 z m 83.60321,15.17636 q -12.24759,0 -19.03702,-6.6563 -6.6563,-6.78942 -6.6563,-19.03702 V 85.279783 H 577.71564 V 69.70404 h 1.33126 q 5.32504,0 8.25381,-2.795646 2.92877,-2.795646 2.92877,-8.120686 v -5.591293 h 17.43951 V 69.70404 h 16.64075 v 15.575743 h -16.64075 v 31.018357 q 0,3.5944 1.19813,6.1238 1.33126,2.52939 3.99378,3.86065 2.79565,1.33126 7.05568,1.33126 0.93188,0 2.13002,-0.13312 1.33126,-0.13313 2.52939,-0.26625 v 14.91011 q -1.86376,0.26625 -4.26003,0.5325 -2.39627,0.26625 -4.39316,0.26625 z m 21.96583,-0.79875 V 69.70404 h 17.43951 v 72.42055 z m 0,-80.541236 V 42.945713 h 17.43951 V 61.583354 Z M 706.3155,143.7221 q -10.78321,0 -19.4364,-4.92566 -8.52007,-5.05879 -13.44573,-13.57885 -4.92566,-8.6532 -4.92566,-19.4364 0,-10.783208 4.92566,-19.303273 4.92566,-8.520064 13.44573,-13.445727 8.65319,-4.925662 19.4364,-4.925662 7.7213,0 14.3776,2.795646 6.65631,2.66252 11.44884,7.455057 4.92566,4.65941 7.05568,11.182584 l -15.30949,6.656301 q -1.99689,-5.458167 -6.78943,-8.786317 -4.65941,-3.32815 -10.7832,-3.32815 -5.72442,0 -10.25071,2.795646 -4.39315,2.795646 -6.92255,7.721308 -2.52939,4.925663 -2.52939,11.315707 0,6.39005 2.52939,11.31571 2.5294,4.92567 6.92255,7.72131 4.52629,2.79565 10.25071,2.79565 6.25692,0 10.91633,-3.32815 4.65941,-3.32815 6.6563,-8.91944 l 15.30949,6.92255 q -2.13002,6.1238 -6.92255,11.04946 -4.79254,4.79253 -11.44884,7.58818 -6.6563,2.66252 -14.51073,2.66252 z m 67.761,0 q -7.58818,0 -13.17948,-2.52939 -5.59129,-2.5294 -8.65319,-7.18881 -3.06189,-4.79253 -3.06189,-11.04946 0,-5.99067 2.66252,-10.65008 2.66252,-4.79253 8.25381,-7.98756 5.59129,-3.19502 14.11135,-4.526282 l 23.69643,-3.860654 v 13.312596 l -20.36828,3.46128 q -5.19191,0.93188 -7.7213,3.32815 -2.5294,2.39627 -2.5294,6.25692 0,3.72753 2.79565,5.99067 2.92877,2.13002 7.1888,2.13002 5.45817,0 9.58508,-2.26314 4.26003,-2.39627 6.52317,-6.52318 2.39627,-4.1269 2.39627,-9.05257 V 93.932973 q 0,-4.65941 -3.72753,-7.721308 -3.5944,-3.195024 -9.58507,-3.195024 -5.5913,0 -9.98445,3.061898 -4.26004,2.928772 -6.25693,7.854434 l -14.24448,-6.922552 q 2.13002,-5.724418 6.6563,-9.851324 4.65941,-4.260033 10.91633,-6.656301 6.25693,-2.396268 13.57886,-2.396268 8.91944,0 15.70887,3.32815 6.78942,3.195024 10.51695,9.052569 3.86065,5.724418 3.86065,13.445726 v 48.191617 h -16.50762 v -12.38072 l 3.72753,-0.26625 q -2.79565,4.65941 -6.6563,7.85443 -3.86066,3.0619 -8.78632,4.79254 -4.92566,1.59751 -10.91633,1.59751 z"
     id="text2"
     style="font-weight:bold;font-size:133.126px;font-family:'Plus Jakarta Sans';-inkscape-font-specification:'Plus Jakarta Sans, Bold';fill:#080808;stroke-width:0.135672"
     transform="scale(1.0002417,0.99975836)"
     aria-label="Óptica" />
  <path
     d="m 396.38583,263.78333 -34.61276,-99.17888 h 19.70265 l 27.15771,82.13875 h -3.86066 l 27.15771,-82.13875 h 19.70265 l -34.47964,99.17888 z m 64.83244,0 v -72.42055 h 17.4395 v 72.42055 z m 0,-80.54124 v -18.63764 h 17.4395 v 18.63764 z m 33.54786,80.54124 V 163.00694 h 17.43951 v 100.77639 z m 33.54785,0 V 163.00694 h 17.43951 v 100.77639 z m 55.51366,1.59751 q -7.58818,0 -13.17947,-2.5294 -5.59129,-2.52939 -8.65319,-7.1888 -3.0619,-4.79254 -3.0619,-11.04946 0,-5.99067 2.66252,-10.65008 2.66252,-4.79254 8.25381,-7.98756 5.59129,-3.19502 14.11136,-4.52629 l 23.69643,-3.86065 v 13.3126 l -20.36828,3.46128 q -5.19192,0.93188 -7.72131,3.32815 -2.52939,2.39627 -2.52939,6.25692 0,3.72753 2.79564,5.99067 2.92877,2.13002 7.18881,2.13002 5.45816,0 9.58507,-2.26315 4.26003,-2.39626 6.52317,-6.52317 2.39627,-4.12691 2.39627,-9.05257 v -18.63764 q 0,-4.65941 -3.72753,-7.72131 -3.5944,-3.19502 -9.58507,-3.19502 -5.59129,0 -9.98445,3.0619 -4.26003,2.92877 -6.25692,7.85443 l -14.24448,-6.92255 q 2.13001,-5.72442 6.6563,-9.85133 4.65941,-4.26003 10.91633,-6.6563 6.25692,-2.39626 13.57885,-2.39626 8.91944,0 15.70887,3.32815 6.78943,3.19502 10.51695,9.05256 3.86066,5.72442 3.86066,13.44573 v 48.19162 h -16.50763 v -12.38072 l 3.72753,-0.26626 q -2.79564,4.65941 -6.6563,7.85444 -3.86065,3.0619 -8.78631,4.79254 -4.92567,1.59751 -10.91634,1.59751 z m 90.39257,27.69021 q -8.12069,0 -15.04324,-2.66252 -6.92255,-2.66252 -11.98134,-7.45506 -4.92567,-4.65941 -7.18881,-11.04946 l 16.24138,-6.12379 q 1.59751,5.05878 6.25692,8.12068 4.79253,3.19503 11.71509,3.19503 5.32504,0 9.31882,-1.99689 4.1269,-1.99689 6.39005,-5.85755 2.26314,-3.72753 2.26314,-9.05257 V 243.6813 l 3.32815,3.99378 q -3.72753,6.52317 -9.98445,9.85132 -6.25693,3.32815 -14.24449,3.32815 -10.11757,0 -18.10513,-4.65941 -7.98756,-4.65941 -12.51385,-12.78009 -4.52628,-8.12069 -4.52628,-18.23827 0,-10.2507 4.52628,-18.23826 4.52629,-7.98756 12.38072,-12.51384 7.85444,-4.65941 17.83889,-4.65941 8.12068,0 14.24448,3.46127 6.25692,3.32815 10.38383,9.7182 l -2.39627,4.39316 v -15.97512 h 16.50762 v 68.82614 q 0,9.45195 -4.65941,16.90701 -4.52628,7.45505 -12.51384,11.71508 -7.85443,4.26004 -18.23826,4.26004 z m -0.79876,-48.32474 q 5.59129,0 9.7182,-2.39627 4.26003,-2.5294 6.6563,-6.92255 2.39627,-4.39316 2.39627,-10.11758 0,-5.59129 -2.5294,-9.98445 -2.39626,-4.52629 -6.6563,-7.05568 -4.1269,-2.52939 -9.58507,-2.52939 -5.45817,0 -9.85132,2.52939 -4.39316,2.52939 -6.92256,7.05568 -2.39626,4.39316 -2.39626,9.98445 0,5.59129 2.39626,9.98445 2.5294,4.39316 6.78943,6.92255 4.39316,2.5294 9.98445,2.5294 z m 52.45168,19.03702 v -72.42055 h 16.3745 v 16.10824 l -1.33126,-2.39626 q 2.52939,-8.12069 7.85443,-11.31571 5.45817,-3.19503 13.04635,-3.19503 h 4.26003 v 15.44262 h -6.25692 q -7.45506,0 -11.98134,4.65941 -4.52629,4.52628 -4.52629,12.7801 v 40.33718 z m 71.755,1.59751 q -7.58818,0 -13.17947,-2.5294 -5.59129,-2.52939 -8.65319,-7.1888 -3.0619,-4.79254 -3.0619,-11.04946 0,-5.99067 2.66252,-10.65008 2.66252,-4.79254 8.25381,-7.98756 5.5913,-3.19502 14.11136,-4.52629 l 23.69643,-3.86065 v 13.3126 l -20.36828,3.46128 q -5.19191,0.93188 -7.72131,3.32815 -2.52939,2.39627 -2.52939,6.25692 0,3.72753 2.79564,5.99067 2.92878,2.13002 7.18881,2.13002 5.45816,0 9.58507,-2.26315 4.26003,-2.39626 6.52318,-6.52317 2.39626,-4.12691 2.39626,-9.05257 v -18.63764 q 0,-4.65941 -3.72752,-7.72131 -3.59441,-3.19502 -9.58508,-3.19502 -5.59129,0 -9.98445,3.0619 -4.26003,2.92877 -6.25692,7.85443 l -14.24448,-6.92255 q 2.13001,-5.72442 6.6563,-9.85133 4.65941,-4.26003 10.91633,-6.6563 6.25692,-2.39626 13.57885,-2.39626 8.91945,0 15.70887,3.32815 6.78943,3.19502 10.51696,9.05256 3.86065,5.72442 3.86065,13.44573 v 48.19162 h -16.50762 v -12.38072 l 3.72752,-0.26626 q -2.79564,4.65941 -6.6563,7.85444 -3.86065,3.0619 -8.78631,4.79254 -4.92567,1.59751 -10.91634,1.59751 z"
     id="text3"
     style="font-weight:bold;font-size:133.126px;font-family:'Plus Jakarta Sans';-inkscape-font-specification:'Plus Jakarta Sans, Bold';fill:#080808;stroke-width:0.135672"
     transform="scale(1.0002417,0.99975836)"
     aria-label="Villagra" />
</svg>
