<svg width="186" height="42" viewBox="0 0 186 42" fill="none" xmlns="http://www.w3.org/2000/svg">
<g clip-path="url(#clip0_157_2311)">
<mask id="mask0_157_2311" style="mask-type:luminance" maskUnits="userSpaceOnUse" x="0" y="1" width="57" height="41">
<path d="M57 1.5H0V41.5H57V1.5Z" fill="white"/>
</mask>
<g mask="url(#mask0_157_2311)">
<path d="M21.2565 23.8417C21.1714 14.0697 29.2868 7.38176 38.6395 7.36855C47.6343 7.35533 55.154 15.5258 54.9489 24.6832C54.7394 34.0367 47.2263 41.6653 37.8932 41.4979C28.0146 41.3216 21.2652 33.5807 21.2565 23.8417ZM47.8045 29.3335C45.9257 31.0077 44.084 32.6577 41.4283 32.8361C38.7617 33.0167 36.4617 32.2083 34.6331 30.2521C32.0821 27.525 31.7854 22.4649 34.0112 19.4249C35.7132 17.1031 38.1442 16.2263 40.9329 16.0766C43.8374 15.9224 45.8581 17.5811 47.8591 19.3963C47.8569 19.0262 47.7958 18.7487 47.6911 18.4909C44.3982 10.501 34.9582 8.58894 28.2743 12.4704C24.4337 14.702 22.6421 18.3786 22.0661 22.791C21.2565 28.9921 24.5493 35.2461 30.2993 37.0436C35.0608 38.5328 39.5538 38.2486 43.7654 35.473C45.9301 34.0455 47.4183 32.0717 47.8045 29.3335ZM40.9439 21.2005C43.4512 20.978 45.2602 21.9935 45.4085 24.4629C45.5875 27.4501 43.1042 27.6814 40.8457 27.9083C41.8909 29.3115 43.6846 29.7366 45.4696 29.122C47.3288 28.4832 48.6076 26.6702 48.6098 24.6678C48.6119 22.5486 47.3026 20.5969 45.4609 19.9823C43.6345 19.3721 41.9847 19.7642 40.9482 21.2005H40.9439Z" fill="#0507B1"/>
<path d="M56.7362 12.3977C55.4596 11.6399 54.2071 10.8358 52.9043 10.1309C45.7949 6.28908 38.4301 5.19204 30.6376 7.85533C25.9155 9.46785 22.1272 12.5277 18.2736 15.5214C17.1803 16.3717 16.0739 17.2088 15.0134 18.0988C13.2088 19.6165 11.1401 20.0285 8.87943 19.6738C5.60402 19.1605 2.77595 17.6582 0.00244141 15.5522C0.486879 15.0984 0.860027 14.5807 1.3641 14.3054C6.98969 11.25 12.5978 8.15493 18.2888 5.22509C24.041 2.26881 30.1641 0.903027 36.6364 1.74673C43.8135 2.68296 50.4254 4.96515 55.6211 10.3688C56.1383 10.9063 56.542 11.5518 57.0002 12.1466C56.9129 12.2303 56.8235 12.314 56.7362 12.3977Z" fill="#00036C"/>
</g>
<path d="M75.1462 15.668C74.3902 15.668 73.6855 15.5327 73.0322 15.262C72.3882 14.9913 71.8189 14.6133 71.3242 14.128C70.8389 13.6427 70.4562 13.0733 70.1762 12.42C69.9055 11.7667 69.7702 11.0527 69.7702 10.278C69.7702 9.50336 69.9055 8.78935 70.1762 8.13602C70.4562 7.47335 70.8389 6.90402 71.3242 6.42802C71.8095 5.94269 72.3789 5.56935 73.0322 5.30802C73.6855 5.03735 74.3902 4.90202 75.1462 4.90202C75.9115 4.90202 76.6162 5.03735 77.2602 5.30802C77.9135 5.56935 78.4829 5.94269 78.9682 6.42802C79.4629 6.91335 79.8455 7.48269 80.1162 8.13602C80.3869 8.78935 80.5222 9.50336 80.5222 10.278C80.5222 11.0527 80.3822 11.7667 80.1022 12.42C79.8315 13.0733 79.4535 13.6427 78.9682 14.128C78.4829 14.6133 77.9135 14.9913 77.2602 15.262C76.6069 15.5327 75.9022 15.668 75.1462 15.668ZM75.1462 14.156C75.6875 14.156 76.1822 14.058 76.6302 13.862C77.0875 13.666 77.4842 13.3953 77.8202 13.05C78.1562 12.6953 78.4175 12.2847 78.6042 11.818C78.7909 11.342 78.8842 10.8287 78.8842 10.278C78.8842 9.72736 78.7909 9.21869 78.6042 8.75202C78.4175 8.28535 78.1562 7.87469 77.8202 7.52002C77.4842 7.16535 77.0875 6.89002 76.6302 6.69402C76.1822 6.49802 75.6875 6.40002 75.1462 6.40002C74.6049 6.40002 74.1055 6.49802 73.6482 6.69402C73.2002 6.89002 72.8082 7.16535 72.4722 7.52002C72.1362 7.87469 71.8749 8.28535 71.6882 8.75202C71.5109 9.21869 71.4222 9.72736 71.4222 10.278C71.4222 10.8287 71.5109 11.342 71.6882 11.818C71.8749 12.2847 72.1362 12.6953 72.4722 13.05C72.8082 13.3953 73.2049 13.666 73.6622 13.862C74.1195 14.058 74.6142 14.156 75.1462 14.156ZM74.3622 3.68402L75.3842 1.37402H77.4562L75.9302 3.68402H74.3622ZM82.4112 15.5V5.07002H86.2052C86.9052 5.07002 87.5212 5.20069 88.0532 5.46202C88.5945 5.71402 89.0145 6.08735 89.3132 6.58202C89.6119 7.06735 89.7612 7.65069 89.7612 8.33202C89.7612 9.00402 89.6072 9.5827 89.2992 10.068C89.0005 10.5533 88.5852 10.9267 88.0532 11.188C87.5212 11.4493 86.9052 11.58 86.2052 11.58H84.0632V15.5H82.4112ZM84.0632 10.11H86.2472C86.6205 10.11 86.9472 10.0354 87.2272 9.88602C87.5072 9.73669 87.7265 9.53135 87.8852 9.27002C88.0439 8.99935 88.1232 8.68202 88.1232 8.31802C88.1232 7.95402 88.0439 7.64135 87.8852 7.38002C87.7265 7.10935 87.5072 6.90402 87.2272 6.76402C86.9472 6.61469 86.6205 6.54002 86.2472 6.54002H84.0632V10.11ZM93.352 15.5V6.54002H90.58V5.07002H97.72V6.54002H94.99V15.5H93.352ZM98.9972 15.5V5.07002H100.649V15.5H98.9972ZM107.711 15.668C106.974 15.668 106.288 15.5327 105.653 15.262C105.028 14.9913 104.482 14.618 104.015 14.142C103.558 13.6567 103.199 13.0873 102.937 12.434C102.676 11.7807 102.545 11.062 102.545 10.278C102.545 9.50336 102.671 8.78935 102.923 8.13602C103.185 7.47335 103.549 6.90402 104.015 6.42802C104.482 5.94269 105.028 5.56935 105.653 5.30802C106.279 5.03735 106.965 4.90202 107.711 4.90202C108.449 4.90202 109.107 5.02802 109.685 5.28002C110.273 5.53202 110.768 5.86335 111.169 6.27402C111.571 6.67535 111.86 7.11402 112.037 7.59002L110.553 8.29002C110.329 7.73002 109.97 7.27735 109.475 6.93202C108.99 6.57735 108.402 6.40002 107.711 6.40002C107.021 6.40002 106.409 6.56335 105.877 6.89002C105.345 7.21669 104.93 7.66935 104.631 8.24802C104.342 8.82669 104.197 9.50336 104.197 10.278C104.197 11.0527 104.342 11.734 104.631 12.322C104.93 12.9007 105.345 13.3533 105.877 13.68C106.409 13.9973 107.021 14.156 107.711 14.156C108.402 14.156 108.99 13.9833 109.475 13.638C109.97 13.2927 110.329 12.84 110.553 12.28L112.037 12.98C111.86 13.4467 111.571 13.8853 111.169 14.296C110.768 14.7067 110.273 15.038 109.685 15.29C109.107 15.542 108.449 15.668 107.711 15.668ZM112.854 15.5L116.522 5.07002H118.566L122.234 15.5H120.47L119.672 13.162H115.43L114.618 15.5H112.854ZM115.906 11.692H119.168L117.32 6.23202H117.782L115.906 11.692ZM75.6002 39.5L69.2642 21.62H72.3122L77.4962 36.884H76.8962L82.0562 21.62H85.1042L78.7682 39.5H75.6002ZM87.2796 39.5V21.62H90.1116V39.5H87.2796ZM93.8906 39.5V21.62H96.7226V36.98H104.45V39.5H93.8906ZM106.9 39.5V21.62H109.732V36.98H117.46V39.5H106.9ZM118.325 39.5L124.613 21.62H128.117L134.405 39.5H131.381L130.013 35.492H122.741L121.349 39.5H118.325ZM123.557 32.972H129.149L125.981 23.612H126.773L123.557 32.972ZM144.248 39.788C142.984 39.788 141.808 39.556 140.72 39.092C139.648 38.628 138.704 37.988 137.888 37.172C137.088 36.34 136.464 35.364 136.016 34.244C135.568 33.124 135.344 31.892 135.344 30.548C135.344 29.22 135.56 27.996 135.992 26.876C136.44 25.74 137.064 24.764 137.864 23.948C138.664 23.116 139.6 22.476 140.672 22.028C141.744 21.564 142.92 21.332 144.2 21.332C145.464 21.332 146.592 21.548 147.584 21.98C148.592 22.412 149.44 22.98 150.128 23.684C150.816 24.372 151.312 25.124 151.616 25.94L149.096 27.164C148.728 26.188 148.12 25.404 147.272 24.812C146.424 24.204 145.4 23.9 144.2 23.9C143.016 23.9 141.968 24.18 141.056 24.74C140.144 25.3 139.432 26.076 138.92 27.068C138.424 28.06 138.176 29.22 138.176 30.548C138.176 31.876 138.432 33.044 138.944 34.052C139.472 35.044 140.192 35.82 141.104 36.38C142.016 36.924 143.064 37.196 144.248 37.196C145.24 37.196 146.144 36.996 146.96 36.596C147.792 36.18 148.456 35.604 148.952 34.868C149.448 34.116 149.696 33.244 149.696 32.252V31.028L150.968 32.18H144.2V29.78H152.504V31.46C152.504 32.772 152.28 33.948 151.832 34.988C151.384 36.012 150.776 36.884 150.008 37.604C149.24 38.324 148.36 38.868 147.368 39.236C146.376 39.604 145.336 39.788 144.248 39.788ZM155.467 39.5V21.62H161.971C163.171 21.62 164.227 21.844 165.139 22.292C166.051 22.724 166.763 23.364 167.275 24.212C167.804 25.044 168.068 26.044 168.068 27.212C168.068 28.444 167.756 29.5 167.131 30.38C166.523 31.26 165.699 31.9 164.659 32.3L168.787 39.5H165.571L161.179 31.7L163.027 32.78H158.299V39.5H155.467ZM158.299 30.26H162.019C162.675 30.26 163.243 30.132 163.724 29.876C164.204 29.62 164.571 29.268 164.827 28.82C165.099 28.356 165.235 27.812 165.235 27.188C165.235 26.564 165.099 26.028 164.827 25.58C164.571 25.116 164.204 24.764 163.724 24.524C163.243 24.268 162.675 24.14 162.019 24.14H158.299V30.26ZM169.659 39.5L175.947 21.62H179.451L185.739 39.5H182.715L181.347 35.492H174.075L172.683 39.5H169.659ZM174.891 32.972H180.483L177.315 23.612H178.107L174.891 32.972Z" fill="#00036C"/>
</g>
<defs>
<clipPath id="clip0_157_2311">
<rect width="186" height="41" fill="white" transform="translate(0 0.5)"/>
</clipPath>
</defs>
</svg>
